<?xml version="1.0" encoding="iso-8859-1"?>
<!-- Uploaded to: SVG Repo, www.svgrepo.com, Generator: SVG Repo Mixer Tools -->
<svg fill="#000000" version="1.1" id="Layer_1" xmlns="http://www.w3.org/2000/svg" xmlns:xlink="http://www.w3.org/1999/xlink" 
	 viewBox="0 0 512 512" xml:space="preserve">
<g>
	<g>
		<rect y="491.984" width="512" height="15.802"/>
	</g>
</g>
<g>
	<g>
		<path d="M447.91,138.571c-6.573,0-12.533,2.669-16.858,6.977l-87.844-36.602c-2.506-10.512-11.971-18.354-23.239-18.354
			c-13.175,0-23.893,10.718-23.893,23.894c0,3.708,0.849,7.222,2.363,10.357l-83.189,83.188c-4.137-3.428-9.444-5.492-15.224-5.492
			c-6.292,0-12.019,2.448-16.29,6.437l-96-59.078c0.161-1.121,0.25-2.264,0.25-3.428c0-13.175-10.718-23.893-23.894-23.893
			c-13.175,0-23.893,10.718-23.893,23.893s10.718,23.893,23.893,23.893c6.291,0,12.019-2.448,16.29-6.437l96.001,59.078
			c-0.161,1.12-0.25,2.264-0.25,3.428c0,13.175,10.718,23.893,23.893,23.893c13.175,0,23.894-10.718,23.894-23.893
			c0-1.477-0.141-2.92-0.399-4.325l86.093-86.092c3.135,1.514,6.649,2.363,10.357,2.363c9.299,0,17.368-5.343,21.315-13.116
			l82.883,34.535c-0.098,0.875-0.153,1.764-0.153,2.665c0,13.175,10.718,23.894,23.894,23.894c13.175,0,23.893-10.718,23.893-23.894
			C471.804,149.289,461.086,138.571,447.91,138.571z M64.091,154.562c-4.462,0-8.091-3.629-8.091-8.091s3.629-8.091,8.091-8.091
			c4.462,0,8.092,3.629,8.092,8.091S68.552,154.562,64.091,154.562z M200.027,234.524c-4.462,0-8.091-3.629-8.091-8.091
			c-0.001-4.463,3.629-8.092,8.091-8.092s8.092,3.629,8.092,8.092C208.119,230.895,204.489,234.524,200.027,234.524z
			 M319.969,122.578c-4.462,0-8.091-3.629-8.091-8.091c0-4.463,3.629-8.092,8.091-8.092c4.462,0,8.092,3.629,8.092,8.092
			C328.061,118.948,324.432,122.578,319.969,122.578z M447.909,170.555c-4.462,0-8.092-3.629-8.092-8.092
			c0-4.462,3.63-8.091,8.092-8.091c4.462,0,8.091,3.629,8.091,8.091S452.371,170.555,447.909,170.555z"/>
	</g>
</g>
<g>
	<g>
		<rect x="31.605" y="4.214" width="96.922" height="15.802"/>
	</g>
</g>
<g>
	<g>
		<rect x="31.605" y="27.391" width="16.856" height="15.802"/>
	</g>
</g>
<g>
	<g>
		<rect x="55.835" y="27.391" width="15.802" height="15.802"/>
	</g>
</g>
<g>
	<g>
		<rect x="80.066" y="27.391" width="15.802" height="15.802"/>
	</g>
</g>
<g>
	<g>
		<rect x="31.605" y="51.621" width="40.033" height="15.802"/>
	</g>
</g>
<g>
	<g>
		<rect x="31.605" y="75.852" width="16.856" height="15.802"/>
	</g>
</g>
<g>
	<g>
		<path d="M23.177,243.358v239.144h15.802V339.226H87.44v143.276h15.802V243.358H23.177z M87.44,323.424H38.979v-31.605H87.44
			V323.424z M87.44,276.016H38.979v-16.856H87.44V276.016z"/>
	</g>
</g>
<g>
	<g>
		<path d="M150.65,323.424v159.078h15.802V403.49h48.461v79.012h15.802V323.424H150.65z M214.914,387.687h-48.461v-16.856h48.461
			V387.687z M214.914,355.029h-48.461v-15.802h48.461V355.029z"/>
	</g>
</g>
<g>
	<g>
		<path d="M279.177,211.753v270.749h15.802V339.226h48.461v143.276h15.802V211.753H279.177z M343.44,323.424h-48.461v-64.263h48.461
			V323.424z M343.44,243.358h-48.461v-15.802h48.461V243.358z"/>
	</g>
</g>
<g>
	<g>
		<path d="M406.65,259.161v223.342h15.802v-63.21h48.461v63.21h15.802V259.161H406.65z M470.914,403.49h-48.461v-95.868h48.461
			V403.49z M470.914,291.819h-48.461v-16.856h48.461V291.819z"/>
	</g>
</g>
</svg>